<svg width="19" height="22" viewBox="0 0 19 22" fill="none" xmlns="http://www.w3.org/2000/svg">
<path fill-rule="evenodd" clip-rule="evenodd" d="M13.552 20.722H5.62153C2.70849 20.722 0.473704 19.6144 1.10849 15.1567L1.84762 9.11555C2.23892 6.8913 3.58675 6.04004 4.76936 6.04004H14.4389C15.6389 6.04004 16.9085 6.95537 17.3607 9.11555L18.0998 15.1567C18.6389 19.111 16.465 20.722 13.552 20.722Z" stroke="#082933" stroke-width="1.5" stroke-linecap="round" stroke-linejoin="round"/>
<path d="M13.6824 5.82044C13.6824 3.43437 11.8448 1.50004 9.57804 1.50004V1.50004C8.48649 1.49521 7.43806 1.94824 6.66458 2.75899C5.8911 3.56975 5.4563 4.67143 5.4563 5.82044V5.82044" stroke="#082933" stroke-width="1.5" stroke-linecap="round" stroke-linejoin="round"/>
<path d="M12.3954 10.3237H12.3519" stroke="#082933" stroke-width="1.5" stroke-linecap="round" stroke-linejoin="round"/>
<path d="M6.8563 10.3237H6.81282" stroke="#082933" stroke-width="1.5" stroke-linecap="round" stroke-linejoin="round"/>
</svg>
